<svg width="16" height="16" fill="none" xmlns="http://www.w3.org/2000/svg"><path fill-rule="evenodd" clip-rule="evenodd" d="M8 0C5.829 0 5.556.009 4.703.048 3.85.087 3.269.222 2.76.42a3.917 3.917 0 00-1.417.922A3.927 3.927 0 00.42 2.759c-.198.509-.333 1.09-.372 1.942C.01 5.554 0 5.827 0 8c0 2.172.01 2.444.048 3.297.04.852.174 1.433.372 1.942.205.526.478.973.923 1.417.444.445.89.72 1.416.924.51.197 1.09.332 1.942.371.854.04 1.126.049 3.299.049s2.444-.01 3.298-.049c.851-.039 1.434-.174 1.943-.371a3.916 3.916 0 001.416-.924c.445-.444.718-.89.923-1.417.197-.509.332-1.09.372-1.941C15.99 10.444 16 10.172 16 8c0-2.173-.01-2.446-.048-3.3-.04-.85-.175-1.432-.372-1.94a3.926 3.926 0 00-.923-1.418A3.911 3.911 0 0013.24.42c-.51-.198-1.092-.333-1.943-.372C10.443.009 10.172 0 7.998 0h.003zm-.716 1.44h.718c2.136 0 2.389.008 3.232.046.78.036 1.204.166 1.486.276.373.145.64.318.92.598.28.28.453.547.598.92.11.282.24.705.275 1.485.039.843.047 1.097.047 3.232 0 2.135-.008 2.388-.047 3.231-.035.78-.166 1.204-.275 1.485-.145.374-.319.64-.599.92-.28.28-.546.453-.92.598-.28.11-.704.24-1.485.275-.843.039-1.096.047-3.232.047s-2.39-.008-3.233-.047c-.78-.036-1.203-.166-1.485-.275a2.478 2.478 0 01-.92-.599 2.48 2.48 0 01-.6-.92c-.109-.281-.24-.704-.275-1.484-.038-.844-.046-1.097-.046-3.233 0-2.137.008-2.389.046-3.232.036-.78.166-1.203.276-1.485.145-.374.319-.64.599-.92.28-.28.546-.454.92-.6.282-.11.705-.24 1.485-.275.738-.033 1.024-.043 2.515-.045v.002zm4.988 1.328a.96.96 0 100 1.92.96.96 0 000-1.92zM8.002 3.89a4.109 4.109 0 100 8.217 4.109 4.109 0 000-8.217zm0 1.442a2.667 2.667 0 110 5.333 2.667 2.667 0 010-5.333z" fill="#A7A7A7"/></svg>