<svg width="17" height="9" fill="none" xmlns="http://www.w3.org/2000/svg"><path fill-rule="evenodd" clip-rule="evenodd" d="M9.334 8.962s.307-.032.464-.188c.144-.144.139-.415.139-.415s-.02-1.264.613-1.451c.624-.184 1.425 1.223 2.274 1.764.642.409 1.13.32 1.13.32l2.27-.03s1.187-.068.625-.934c-.047-.071-.329-.642-1.688-1.813-1.425-1.226-1.233-1.028.481-3.149C16.686 1.775 17.104.986 16.973.65c-.124-.323-.892-.237-.892-.237l-2.556.015s-.19-.024-.33.054c-.137.076-.226.254-.226.254s-.404 1-.944 1.85c-1.138 1.793-1.593 1.888-1.78 1.777-.432-.26-.324-1.044-.324-1.6 0-1.738.284-2.463-.553-2.65C9.09.049 8.886.008 8.175.002c-.912-.009-1.684.003-2.121.2-.291.133-.516.428-.379.444.169.021.551.096.754.352.262.331.253 1.074.253 1.074s.15 2.046-.352 2.3c-.344.174-.816-.182-1.831-1.809C3.979 1.73 3.587.81 3.587.81S3.51.636 3.375.544a1.097 1.097 0 00-.392-.147L.554.412S.19.422.055.569c-.119.13-.009.4-.009.4S1.948 5.1 4.101 7.18c1.975 1.908 4.217 1.783 4.217 1.783h1.016z" fill="#A7A7A7"/></svg>